<svg width="12" height="13" viewBox="0 0 12 13" fill="none" xmlns="http://www.w3.org/2000/svg">
<path d="M7.05375 1.73721C6.744 0.687207 5.256 0.687207 4.94625 1.73721L4.87125 1.99221C4.82497 2.1494 4.74409 2.29425 4.63454 2.41612C4.525 2.53799 4.38956 2.63379 4.23817 2.6965C4.08678 2.75922 3.92327 2.78725 3.75963 2.77855C3.596 2.76985 3.43638 2.72463 3.2925 2.64621L3.06 2.51871C2.09775 1.99521 1.0455 3.04746 1.56975 4.00896L1.6965 4.24221C2.031 4.85721 1.71375 5.62296 1.0425 5.82096L0.7875 5.89596C-0.2625 6.20571 -0.2625 7.69371 0.7875 8.00346L1.0425 8.07846C1.1997 8.12474 1.34454 8.20562 1.46641 8.31516C1.58828 8.42471 1.68408 8.56014 1.7468 8.71154C1.80951 8.86293 1.83755 9.02644 1.82884 9.19007C1.82014 9.35371 1.77492 9.51332 1.6965 9.65721L1.569 9.88971C1.0455 10.852 2.09775 11.9042 3.05925 11.38L3.2925 11.2532C3.43638 11.1748 3.596 11.1296 3.75963 11.1209C3.92327 11.1122 4.08678 11.1402 4.23817 11.2029C4.38956 11.2656 4.525 11.3614 4.63454 11.4833C4.74409 11.6052 4.82497 11.75 4.87125 11.9072L4.94625 12.1622C5.256 13.2122 6.744 13.2122 7.05375 12.1622L7.12875 11.9072C7.17503 11.75 7.25591 11.6052 7.36546 11.4833C7.475 11.3614 7.61044 11.2656 7.76183 11.2029C7.91322 11.1402 8.07673 11.1122 8.24037 11.1209C8.404 11.1296 8.56361 11.1748 8.7075 11.2532L8.94 11.3807C9.90225 11.9042 10.9545 10.852 10.4303 9.89046L10.3035 9.65721C10.2251 9.51332 10.1799 9.35371 10.1712 9.19007C10.1625 9.02644 10.1905 8.86293 10.2532 8.71154C10.3159 8.56014 10.4117 8.42471 10.5336 8.31516C10.6555 8.20562 10.8003 8.12474 10.9575 8.07846L11.2125 8.00346C12.2625 7.69371 12.2625 6.20571 11.2125 5.89596L10.9575 5.82096C10.8003 5.77468 10.6555 5.6938 10.5336 5.58425C10.4117 5.4747 10.3159 5.33927 10.2532 5.18788C10.1905 5.03649 10.1625 4.87298 10.1712 4.70934C10.1799 4.54571 10.2251 4.38609 10.3035 4.24221L10.431 4.00971C10.9545 3.04746 9.90225 1.99521 8.94075 2.51946L8.7075 2.64621C8.56361 2.72463 8.404 2.76985 8.24037 2.77855C8.07673 2.78725 7.91322 2.75922 7.76183 2.6965C7.61044 2.63379 7.475 2.53799 7.36546 2.41612C7.25591 2.29425 7.17503 2.1494 7.12875 1.99221L7.05375 1.73721ZM6 9.14721C5.41719 9.14721 4.85824 8.91569 4.44613 8.50357C4.03402 8.09146 3.8025 7.53252 3.8025 6.94971C3.8025 6.36689 4.03402 5.80795 4.44613 5.39584C4.85824 4.98373 5.41719 4.75221 6 4.75221C6.58261 4.75221 7.14137 4.98365 7.55334 5.39562C7.96531 5.80759 8.19675 6.36634 8.19675 6.94896C8.19675 7.53157 7.96531 8.09032 7.55334 8.50229C7.14137 8.91426 6.58261 9.14571 6 9.14571V9.14721Z" fill="white"/>
</svg>
