<svg width="15" height="9" viewBox="0 0 15 9" fill="none" xmlns="http://www.w3.org/2000/svg">
<path d="M13.8214 1.97159C13.9286 1.86363 14 1.72727 14 1.56818C14 1.24432 13.744 0.999999 13.4048 0.999999C13.244 0.999999 13.0952 1.06249 12.9881 1.16477L7.13096 6.97159L7.86309 6.97159L2.01786 1.16477C1.90475 1.06249 1.75001 1 1.59524 1C1.25595 1 1 1.24432 1 1.56818C1 1.72727 1.06546 1.85795 1.17857 1.96591L7.04762 7.80114C7.16668 7.92614 7.32737 8 7.49999 8C7.67263 8 7.82143 7.93182 7.95238 7.80682L13.8214 1.97159Z" fill="#B2B2B2" stroke="#B2B2B2"/>
</svg>
