<svg width="40" height="67" viewBox="0 0 40 67" fill="none" xmlns="http://www.w3.org/2000/svg">
<path d="M31.5952 64.8601L31.5952 64.8601L31.6 64.8647C32.2874 65.5185 33.2088 66 34.3161 66C36.4994 66 38.1708 64.316 38.1708 62.1338C38.1708 61.0877 37.7466 60.1195 37.0514 59.4217L37.0448 59.415L37.038 59.4084L10.432 33.6888L37.0373 8.02224L37.0542 8.00594L37.0703 7.98886C37.7478 7.27082 38.1708 6.28423 38.1708 5.26752C38.1708 3.08526 36.4993 1.40128 34.3161 1.40128C33.2225 1.40128 32.3217 1.84336 31.6168 2.54777L2.31429 30.7936C1.50591 31.5364 0.999999 32.5661 0.999999 33.7006C0.999999 34.8437 1.4836 35.803 2.26211 36.5847L2.26929 36.5919L2.27662 36.5989L31.5952 64.8601Z" fill="white" stroke="white" stroke-width="2"/>
</svg>
