<svg width="40" height="67" viewBox="0 0 40 67" fill="none" xmlns="http://www.w3.org/2000/svg">
<path d="M7.57573 2.54127L7.57575 2.54125L7.5709 2.53664C6.8835 1.88285 5.96214 1.40137 4.85483 1.40137C2.67155 1.40137 1.00006 3.08534 1.00006 5.26761C1.00006 6.3137 1.42432 7.28186 2.11946 7.97971L2.12612 7.9864L2.13291 7.99296L28.7389 33.7125L2.13364 59.3791L2.11674 59.3954L2.10062 59.4125C1.42307 60.1305 1.00006 61.1171 1.00006 62.1338C1.00006 64.3161 2.67155 66.0001 4.85483 66.0001C5.94838 66.0001 6.84915 65.558 7.55406 64.8536L36.8566 36.6078C37.665 35.865 38.1709 34.8353 38.1709 33.7008C38.1709 32.5577 37.6873 31.5983 36.9088 30.8167L36.9016 30.8095L36.8943 30.8024L7.57573 2.54127Z" fill="white" stroke="white" stroke-width="2"/>
</svg>
