<svg width="367" height="367" viewBox="0 0 367 367" fill="none" xmlns="http://www.w3.org/2000/svg">
<path d="M366.964 328.974V27.6467C366.964 12.3806 354.585 0 339.32 0H27.644C12.3794 0 0 12.3806 0 27.6467V328.974C20.999 328.974 38.0218 345.999 38.0218 367H47.0381C47.0381 361.31 51.6454 356.702 57.3347 356.702C63.024 356.702 67.6314 361.31 67.6314 367H83.0853C83.0853 361.31 87.6927 356.702 93.382 356.702C99.0712 356.702 103.679 361.31 103.679 367H119.133C119.133 361.31 123.74 356.702 129.429 356.702C135.118 356.702 139.726 361.31 139.726 367H155.18C155.18 361.31 159.787 356.702 165.476 356.702C171.166 356.702 175.773 361.31 175.773 367H191.227C191.227 361.31 195.834 356.702 201.524 356.702C207.213 356.702 211.82 361.31 211.82 367H227.274C227.274 361.31 231.882 356.702 237.571 356.702C243.26 356.702 247.867 361.31 247.867 367H263.321C263.321 361.31 267.929 356.702 273.618 356.702C279.307 356.702 283.915 361.31 283.915 367H299.369C299.369 361.31 303.976 356.702 309.665 356.702C315.355 356.702 319.962 361.31 319.962 367H328.978C328.978 345.999 346.001 328.974 367 328.974H366.964Z" fill="white"/>
</svg>
